<svg width="25" height="25" viewBox="0 0 25 25" fill="none" xmlns="http://www.w3.org/2000/svg">
<path fill-rule="evenodd" clip-rule="evenodd" d="M2.34375 6.25C2.34375 4.74063 3.56875 3.51562 5.07812 3.51562H20.7031C22.2125 3.51562 23.4375 4.74063 23.4375 6.25V16.4062C23.4375 16.7171 23.314 17.0151 23.0943 17.2349C22.8745 17.4547 22.5764 17.5781 22.2656 17.5781C21.9548 17.5781 21.6568 17.4547 21.437 17.2349C21.2172 17.0151 21.0938 16.7171 21.0938 16.4062V6.25C21.0938 6.1464 21.0526 6.04704 20.9793 5.97379C20.9061 5.90053 20.8067 5.85938 20.7031 5.85938H5.07812C4.97452 5.85938 4.87517 5.90053 4.80191 5.97379C4.72866 6.04704 4.6875 6.1464 4.6875 6.25V16.4062C4.6875 16.7171 4.56404 17.0151 4.34427 17.2349C4.1245 17.4547 3.82643 17.5781 3.51562 17.5781C3.20482 17.5781 2.90675 17.4547 2.68698 17.2349C2.46722 17.0151 2.34375 16.7171 2.34375 16.4062V6.25Z" fill="#AF73D8"/>
<path d="M3.51562 21.0938C3.82643 21.0938 4.1245 20.9703 4.34427 20.7505C4.56404 20.5307 4.6875 20.2327 4.6875 19.9219C4.6875 19.6111 4.56404 19.313 4.34427 19.0932C4.1245 18.8735 3.82643 18.75 3.51562 18.75C3.20482 18.75 2.90675 18.8735 2.68698 19.0932C2.46722 19.313 2.34375 19.6111 2.34375 19.9219C2.34375 20.2327 2.46722 20.5307 2.68698 20.7505C2.90675 20.9703 3.20482 21.0938 3.51562 21.0938ZM22.2656 21.0938C22.5764 21.0938 22.8745 20.9703 23.0943 20.7505C23.314 20.5307 23.4375 20.2327 23.4375 19.9219C23.4375 19.6111 23.314 19.313 23.0943 19.0932C22.8745 18.8735 22.5764 18.75 22.2656 18.75C21.9548 18.75 21.6568 18.8735 21.437 19.0932C21.2172 19.313 21.0938 19.6111 21.0938 19.9219C21.0938 20.2327 21.2172 20.5307 21.437 20.7505C21.6568 20.9703 21.9548 21.0938 22.2656 21.0938ZM17.5781 21.0938C17.8889 21.0938 18.187 20.9703 18.4068 20.7505C18.6265 20.5307 18.75 20.2327 18.75 19.9219C18.75 19.6111 18.6265 19.313 18.4068 19.0932C18.187 18.8735 17.8889 18.75 17.5781 18.75C17.2673 18.75 16.9693 18.8735 16.7495 19.0932C16.5297 19.313 16.4062 19.6111 16.4062 19.9219C16.4062 20.2327 16.5297 20.5307 16.7495 20.7505C16.9693 20.9703 17.2673 21.0938 17.5781 21.0938ZM8.20312 21.0938C8.51393 21.0938 8.812 20.9703 9.03177 20.7505C9.25153 20.5307 9.375 20.2327 9.375 19.9219C9.375 19.6111 9.25153 19.313 9.03177 19.0932C8.812 18.8735 8.51393 18.75 8.20312 18.75C7.89232 18.75 7.59425 18.8735 7.37448 19.0932C7.15472 19.313 7.03125 19.6111 7.03125 19.9219C7.03125 20.2327 7.15472 20.5307 7.37448 20.7505C7.59425 20.9703 7.89232 21.0938 8.20312 21.0938ZM12.8906 21.0938C13.2014 21.0938 13.4995 20.9703 13.7193 20.7505C13.939 20.5307 14.0625 20.2327 14.0625 19.9219C14.0625 19.6111 13.939 19.313 13.7193 19.0932C13.4995 18.8735 13.2014 18.75 12.8906 18.75C12.5798 18.75 12.2818 18.8735 12.062 19.0932C11.8422 19.313 11.7188 19.6111 11.7188 19.9219C11.7188 20.2327 11.8422 20.5307 12.062 20.7505C12.2818 20.9703 12.5798 21.0938 12.8906 21.0938Z" fill="#AF73D8"/>
</svg>
